<mxfile host="app.diagrams.net" modified="2024-06-16T12:15:45.770Z" agent="Mozilla/5.0 (Macintosh; Intel Mac OS X 10_15_7) AppleWebKit/537.36 (KHTML, like Gecko) Chrome/125.0.0.0 Safari/537.36" etag="srlJazPN6COIvbIHpvJQ" version="24.5.4" type="device">
  <diagram name="Page-1" id="gzGRxWa3JoMpj--NY-mY">
    <mxGraphModel dx="1985" dy="1203" grid="0" gridSize="10" guides="1" tooltips="1" connect="1" arrows="1" fold="1" page="1" pageScale="1" pageWidth="2336" pageHeight="1654" math="0" shadow="0">
      <root>
        <mxCell id="0" />
        <mxCell id="1" parent="0" />
        <mxCell id="ijba6530hI7enNe_Atq1-97" value="" style="ellipse;whiteSpace=wrap;html=1;aspect=fixed;" vertex="1" parent="1">
          <mxGeometry x="1143" y="1230" width="50" height="50" as="geometry" />
        </mxCell>
        <mxCell id="ijba6530hI7enNe_Atq1-5" style="edgeStyle=none;curved=1;rounded=0;orthogonalLoop=1;jettySize=auto;html=1;exitX=0.5;exitY=1;exitDx=0;exitDy=0;entryX=0.5;entryY=0;entryDx=0;entryDy=0;fontSize=12;startSize=8;endSize=8;" edge="1" parent="1" source="ijba6530hI7enNe_Atq1-1" target="ijba6530hI7enNe_Atq1-4">
          <mxGeometry relative="1" as="geometry" />
        </mxCell>
        <mxCell id="ijba6530hI7enNe_Atq1-1" value="" style="ellipse;whiteSpace=wrap;html=1;aspect=fixed;strokeColor=#000000;fillColor=#000000;" vertex="1" parent="1">
          <mxGeometry x="1133.5" y="10" width="40" height="40" as="geometry" />
        </mxCell>
        <mxCell id="ijba6530hI7enNe_Atq1-4" value="Prijava u susstav" style="rounded=1;whiteSpace=wrap;html=1;" vertex="1" parent="1">
          <mxGeometry x="1060" y="100" width="187" height="60" as="geometry" />
        </mxCell>
        <mxCell id="ijba6530hI7enNe_Atq1-26" style="edgeStyle=none;curved=1;rounded=0;orthogonalLoop=1;jettySize=auto;html=1;exitX=0.5;exitY=1;exitDx=0;exitDy=0;entryX=0;entryY=0.5;entryDx=0;entryDy=0;fontSize=12;startSize=8;endSize=8;" edge="1" parent="1" source="ijba6530hI7enNe_Atq1-11" target="ijba6530hI7enNe_Atq1-21">
          <mxGeometry relative="1" as="geometry" />
        </mxCell>
        <mxCell id="ijba6530hI7enNe_Atq1-11" value="Upravljanje zaposlenicima" style="rounded=1;whiteSpace=wrap;html=1;" vertex="1" parent="1">
          <mxGeometry x="470" y="380" width="187" height="60" as="geometry" />
        </mxCell>
        <mxCell id="ijba6530hI7enNe_Atq1-27" style="edgeStyle=none;curved=1;rounded=0;orthogonalLoop=1;jettySize=auto;html=1;exitX=0.5;exitY=1;exitDx=0;exitDy=0;fontSize=12;startSize=8;endSize=8;entryX=0.5;entryY=0;entryDx=0;entryDy=0;" edge="1" parent="1" source="ijba6530hI7enNe_Atq1-12" target="ijba6530hI7enNe_Atq1-22">
          <mxGeometry relative="1" as="geometry">
            <mxPoint x="1023.25" y="490" as="targetPoint" />
          </mxGeometry>
        </mxCell>
        <mxCell id="ijba6530hI7enNe_Atq1-12" value="Upravljanje projektima" style="rounded=1;whiteSpace=wrap;html=1;" vertex="1" parent="1">
          <mxGeometry x="860" y="370" width="187" height="60" as="geometry" />
        </mxCell>
        <mxCell id="ijba6530hI7enNe_Atq1-13" value="Upravljanje radnim aktivnostima" style="rounded=1;whiteSpace=wrap;html=1;" vertex="1" parent="1">
          <mxGeometry x="1300.5" y="380" width="187" height="60" as="geometry" />
        </mxCell>
        <mxCell id="ijba6530hI7enNe_Atq1-14" value="Upravljanje izvješćima" style="rounded=1;whiteSpace=wrap;html=1;" vertex="1" parent="1">
          <mxGeometry x="1660" y="380" width="187" height="60" as="geometry" />
        </mxCell>
        <mxCell id="ijba6530hI7enNe_Atq1-17" value="" style="endArrow=classic;html=1;rounded=0;fontSize=12;startSize=8;endSize=8;curved=0;exitX=1;exitY=0.5;exitDx=0;exitDy=0;" edge="1" parent="1" source="ijba6530hI7enNe_Atq1-67">
          <mxGeometry width="50" height="50" relative="1" as="geometry">
            <mxPoint x="1760" y="320" as="sourcePoint" />
            <mxPoint x="1760" y="380" as="targetPoint" />
            <Array as="points">
              <mxPoint x="1760" y="220" />
            </Array>
          </mxGeometry>
        </mxCell>
        <mxCell id="ijba6530hI7enNe_Atq1-18" value="" style="endArrow=classic;html=1;rounded=0;fontSize=12;startSize=8;endSize=8;curved=0;exitX=0.5;exitY=1;exitDx=0;exitDy=0;entryX=0;entryY=0.5;entryDx=0;entryDy=0;" edge="1" parent="1" source="ijba6530hI7enNe_Atq1-67" target="ijba6530hI7enNe_Atq1-13">
          <mxGeometry width="50" height="50" relative="1" as="geometry">
            <mxPoint x="1400" y="320" as="sourcePoint" />
            <mxPoint x="1400" y="380" as="targetPoint" />
            <Array as="points">
              <mxPoint x="1150" y="410" />
            </Array>
          </mxGeometry>
        </mxCell>
        <mxCell id="ijba6530hI7enNe_Atq1-19" value="" style="endArrow=classic;html=1;rounded=0;fontSize=12;startSize=8;endSize=8;curved=1;" edge="1" parent="1">
          <mxGeometry width="50" height="50" relative="1" as="geometry">
            <mxPoint x="560" y="270" as="sourcePoint" />
            <mxPoint x="560" y="380" as="targetPoint" />
          </mxGeometry>
        </mxCell>
        <mxCell id="ijba6530hI7enNe_Atq1-20" value="" style="endArrow=classic;html=1;rounded=0;fontSize=12;startSize=8;endSize=8;curved=0;exitX=1;exitY=0.5;exitDx=0;exitDy=0;entryX=0.5;entryY=0;entryDx=0;entryDy=0;" edge="1" parent="1" source="ijba6530hI7enNe_Atq1-68" target="ijba6530hI7enNe_Atq1-12">
          <mxGeometry width="50" height="50" relative="1" as="geometry">
            <mxPoint x="940" y="270" as="sourcePoint" />
            <mxPoint x="940" y="380" as="targetPoint" />
            <Array as="points">
              <mxPoint x="954" y="270" />
            </Array>
          </mxGeometry>
        </mxCell>
        <mxCell id="ijba6530hI7enNe_Atq1-37" style="edgeStyle=none;curved=0;rounded=0;orthogonalLoop=1;jettySize=auto;html=1;exitX=0.5;exitY=1;exitDx=0;exitDy=0;entryX=0.5;entryY=0;entryDx=0;entryDy=0;fontSize=12;startSize=8;endSize=8;" edge="1" parent="1" source="ijba6530hI7enNe_Atq1-21" target="ijba6530hI7enNe_Atq1-33">
          <mxGeometry relative="1" as="geometry">
            <Array as="points">
              <mxPoint x="414" y="514" />
            </Array>
          </mxGeometry>
        </mxCell>
        <mxCell id="ijba6530hI7enNe_Atq1-38" style="edgeStyle=none;curved=0;rounded=0;orthogonalLoop=1;jettySize=auto;html=1;exitX=0.5;exitY=0;exitDx=0;exitDy=0;entryX=0.5;entryY=0;entryDx=0;entryDy=0;fontSize=12;startSize=8;endSize=8;" edge="1" parent="1">
          <mxGeometry relative="1" as="geometry">
            <mxPoint x="570" y="514" as="sourcePoint" />
            <mxPoint x="683.5" y="600" as="targetPoint" />
            <Array as="points">
              <mxPoint x="684" y="514" />
            </Array>
          </mxGeometry>
        </mxCell>
        <mxCell id="ijba6530hI7enNe_Atq1-21" value="" style="rhombus;whiteSpace=wrap;html=1;direction=south;" vertex="1" parent="1">
          <mxGeometry x="533.5" y="481" width="56.5" height="66" as="geometry" />
        </mxCell>
        <mxCell id="ijba6530hI7enNe_Atq1-22" value="" style="rhombus;whiteSpace=wrap;html=1;" vertex="1" parent="1">
          <mxGeometry x="920.5" y="487" width="66" height="60" as="geometry" />
        </mxCell>
        <mxCell id="ijba6530hI7enNe_Atq1-24" value="" style="rhombus;whiteSpace=wrap;html=1;" vertex="1" parent="1">
          <mxGeometry x="1720.5" y="487" width="66" height="60" as="geometry" />
        </mxCell>
        <mxCell id="ijba6530hI7enNe_Atq1-29" value="" style="rhombus;whiteSpace=wrap;html=1;" vertex="1" parent="1">
          <mxGeometry x="1366.5" y="487" width="66" height="60" as="geometry" />
        </mxCell>
        <mxCell id="ijba6530hI7enNe_Atq1-31" style="edgeStyle=none;curved=1;rounded=0;orthogonalLoop=1;jettySize=auto;html=1;exitX=0.5;exitY=1;exitDx=0;exitDy=0;fontSize=12;startSize=8;endSize=8;" edge="1" parent="1">
          <mxGeometry relative="1" as="geometry">
            <mxPoint x="1753.05" y="487" as="targetPoint" />
            <mxPoint x="1753.8" y="437" as="sourcePoint" />
          </mxGeometry>
        </mxCell>
        <mxCell id="ijba6530hI7enNe_Atq1-39" style="edgeStyle=none;curved=1;rounded=0;orthogonalLoop=1;jettySize=auto;html=1;exitX=0.5;exitY=1;exitDx=0;exitDy=0;fontSize=12;startSize=8;endSize=8;" edge="1" parent="1" source="ijba6530hI7enNe_Atq1-33">
          <mxGeometry relative="1" as="geometry">
            <mxPoint x="413.25" y="729.9999999999998" as="targetPoint" />
          </mxGeometry>
        </mxCell>
        <mxCell id="ijba6530hI7enNe_Atq1-33" value="Unos/uređivanje podataka&lt;div&gt;o zaposleniku&amp;nbsp;&lt;/div&gt;" style="rounded=1;whiteSpace=wrap;html=1;" vertex="1" parent="1">
          <mxGeometry x="320" y="600" width="187" height="60" as="geometry" />
        </mxCell>
        <mxCell id="ijba6530hI7enNe_Atq1-90" style="edgeStyle=none;curved=0;rounded=0;orthogonalLoop=1;jettySize=auto;html=1;exitX=0.588;exitY=1.012;exitDx=0;exitDy=0;entryX=0.5;entryY=0;entryDx=0;entryDy=0;fontSize=12;startSize=8;endSize=8;exitPerimeter=0;" edge="1" parent="1" source="ijba6530hI7enNe_Atq1-35" target="ijba6530hI7enNe_Atq1-88">
          <mxGeometry relative="1" as="geometry">
            <Array as="points">
              <mxPoint x="700" y="893" />
            </Array>
          </mxGeometry>
        </mxCell>
        <mxCell id="ijba6530hI7enNe_Atq1-35" value="Pregled podataka o zaposlenicima" style="rounded=1;whiteSpace=wrap;html=1;" vertex="1" parent="1">
          <mxGeometry x="580" y="600" width="187" height="60" as="geometry" />
        </mxCell>
        <mxCell id="ijba6530hI7enNe_Atq1-86" style="edgeStyle=none;curved=0;rounded=0;orthogonalLoop=1;jettySize=auto;html=1;exitX=0.394;exitY=1.054;exitDx=0;exitDy=0;entryX=0.5;entryY=1;entryDx=0;entryDy=0;fontSize=12;startSize=8;endSize=8;exitPerimeter=0;" edge="1" parent="1" source="ijba6530hI7enNe_Atq1-36" target="ijba6530hI7enNe_Atq1-60">
          <mxGeometry relative="1" as="geometry">
            <Array as="points">
              <mxPoint x="854" y="893" />
            </Array>
          </mxGeometry>
        </mxCell>
        <mxCell id="ijba6530hI7enNe_Atq1-36" value="Unos/uređivanje podataka&lt;div&gt;o projektu&lt;/div&gt;" style="rounded=1;whiteSpace=wrap;html=1;" vertex="1" parent="1">
          <mxGeometry x="780" y="600" width="187" height="60" as="geometry" />
        </mxCell>
        <mxCell id="ijba6530hI7enNe_Atq1-87" style="edgeStyle=none;curved=0;rounded=0;orthogonalLoop=1;jettySize=auto;html=1;entryX=0.5;entryY=0;entryDx=0;entryDy=0;fontSize=12;startSize=8;endSize=8;" edge="1" parent="1" target="ijba6530hI7enNe_Atq1-60">
          <mxGeometry relative="1" as="geometry">
            <mxPoint x="1100" y="650" as="sourcePoint" />
            <Array as="points">
              <mxPoint x="1100" y="893" />
            </Array>
          </mxGeometry>
        </mxCell>
        <mxCell id="ijba6530hI7enNe_Atq1-41" value="Pregled podataka o projektu" style="rounded=1;whiteSpace=wrap;html=1;" vertex="1" parent="1">
          <mxGeometry x="981" y="600" width="187" height="60" as="geometry" />
        </mxCell>
        <mxCell id="ijba6530hI7enNe_Atq1-57" style="edgeStyle=none;curved=1;rounded=0;orthogonalLoop=1;jettySize=auto;html=1;exitX=0.5;exitY=1;exitDx=0;exitDy=0;fontSize=12;startSize=8;endSize=8;" edge="1" parent="1" source="ijba6530hI7enNe_Atq1-43">
          <mxGeometry relative="1" as="geometry">
            <mxPoint x="1273.7777777777778" y="730" as="targetPoint" />
          </mxGeometry>
        </mxCell>
        <mxCell id="ijba6530hI7enNe_Atq1-43" value="Unos početka rada" style="rounded=1;whiteSpace=wrap;html=1;" vertex="1" parent="1">
          <mxGeometry x="1179.5" y="600" width="187" height="60" as="geometry" />
        </mxCell>
        <mxCell id="ijba6530hI7enNe_Atq1-45" style="edgeStyle=none;curved=1;rounded=0;orthogonalLoop=1;jettySize=auto;html=1;exitX=0.5;exitY=1;exitDx=0;exitDy=0;fontSize=12;startSize=8;endSize=8;" edge="1" parent="1">
          <mxGeometry relative="1" as="geometry">
            <mxPoint x="1399.12" y="487" as="targetPoint" />
            <mxPoint x="1399.87" y="437" as="sourcePoint" />
          </mxGeometry>
        </mxCell>
        <mxCell id="ijba6530hI7enNe_Atq1-81" style="edgeStyle=none;curved=0;rounded=0;orthogonalLoop=1;jettySize=auto;html=1;exitX=0.663;exitY=1.017;exitDx=0;exitDy=0;entryX=0.5;entryY=0;entryDx=0;entryDy=0;fontSize=12;startSize=8;endSize=8;exitPerimeter=0;" edge="1" parent="1" source="ijba6530hI7enNe_Atq1-46" target="ijba6530hI7enNe_Atq1-61">
          <mxGeometry relative="1" as="geometry">
            <Array as="points">
              <mxPoint x="1510" y="903" />
            </Array>
          </mxGeometry>
        </mxCell>
        <mxCell id="ijba6530hI7enNe_Atq1-46" value="Pregled povijesti aktivnosti" style="rounded=1;whiteSpace=wrap;html=1;" vertex="1" parent="1">
          <mxGeometry x="1380" y="600" width="187" height="60" as="geometry" />
        </mxCell>
        <mxCell id="ijba6530hI7enNe_Atq1-76" style="edgeStyle=none;curved=1;rounded=0;orthogonalLoop=1;jettySize=auto;html=1;exitX=0.362;exitY=1.013;exitDx=0;exitDy=0;fontSize=12;startSize=8;endSize=8;exitPerimeter=0;" edge="1" parent="1" source="ijba6530hI7enNe_Atq1-47">
          <mxGeometry relative="1" as="geometry">
            <mxPoint x="1655" y="730" as="targetPoint" />
          </mxGeometry>
        </mxCell>
        <mxCell id="ijba6530hI7enNe_Atq1-47" value="Odabir vrste izvješća" style="rounded=1;whiteSpace=wrap;html=1;" vertex="1" parent="1">
          <mxGeometry x="1587" y="600" width="187" height="60" as="geometry" />
        </mxCell>
        <mxCell id="ijba6530hI7enNe_Atq1-79" style="edgeStyle=none;curved=0;rounded=0;orthogonalLoop=1;jettySize=auto;html=1;entryX=0.5;entryY=0;entryDx=0;entryDy=0;fontSize=12;startSize=8;endSize=8;exitX=0.376;exitY=1.011;exitDx=0;exitDy=0;exitPerimeter=0;" edge="1" parent="1" source="ijba6530hI7enNe_Atq1-48" target="ijba6530hI7enNe_Atq1-62">
          <mxGeometry relative="1" as="geometry">
            <mxPoint x="1860" y="661" as="sourcePoint" />
            <Array as="points">
              <mxPoint x="1870" y="893" />
            </Array>
          </mxGeometry>
        </mxCell>
        <mxCell id="ijba6530hI7enNe_Atq1-48" value="Pregled izvješća" style="rounded=1;whiteSpace=wrap;html=1;" vertex="1" parent="1">
          <mxGeometry x="1800" y="600" width="187" height="60" as="geometry" />
        </mxCell>
        <mxCell id="ijba6530hI7enNe_Atq1-49" style="edgeStyle=none;curved=0;rounded=0;orthogonalLoop=1;jettySize=auto;html=1;exitX=0.5;exitY=1;exitDx=0;exitDy=0;fontSize=12;startSize=8;endSize=8;" edge="1" parent="1">
          <mxGeometry relative="1" as="geometry">
            <mxPoint x="920.5" y="520" as="sourcePoint" />
            <mxPoint x="850" y="610" as="targetPoint" />
            <Array as="points">
              <mxPoint x="850" y="520" />
            </Array>
          </mxGeometry>
        </mxCell>
        <mxCell id="ijba6530hI7enNe_Atq1-50" style="edgeStyle=none;curved=0;rounded=0;orthogonalLoop=1;jettySize=auto;html=1;entryX=0.5;entryY=0;entryDx=0;entryDy=0;fontSize=12;startSize=8;endSize=8;exitX=1;exitY=0.5;exitDx=0;exitDy=0;" edge="1" parent="1" source="ijba6530hI7enNe_Atq1-22">
          <mxGeometry relative="1" as="geometry">
            <mxPoint x="990" y="514" as="sourcePoint" />
            <mxPoint x="1094.5" y="600" as="targetPoint" />
            <Array as="points">
              <mxPoint x="1095" y="520" />
            </Array>
          </mxGeometry>
        </mxCell>
        <mxCell id="ijba6530hI7enNe_Atq1-89" style="edgeStyle=none;curved=0;rounded=0;orthogonalLoop=1;jettySize=auto;html=1;exitX=0.5;exitY=1;exitDx=0;exitDy=0;entryX=0.5;entryY=1;entryDx=0;entryDy=0;fontSize=12;startSize=8;endSize=8;" edge="1" parent="1" source="ijba6530hI7enNe_Atq1-52" target="ijba6530hI7enNe_Atq1-88">
          <mxGeometry relative="1" as="geometry">
            <Array as="points">
              <mxPoint x="414" y="893" />
            </Array>
          </mxGeometry>
        </mxCell>
        <mxCell id="ijba6530hI7enNe_Atq1-52" value="Odabir tima" style="rounded=1;whiteSpace=wrap;html=1;" vertex="1" parent="1">
          <mxGeometry x="320" y="730" width="187" height="60" as="geometry" />
        </mxCell>
        <mxCell id="ijba6530hI7enNe_Atq1-53" style="edgeStyle=none;curved=0;rounded=0;orthogonalLoop=1;jettySize=auto;html=1;exitX=0;exitY=0.5;exitDx=0;exitDy=0;fontSize=12;startSize=8;endSize=8;entryX=0.5;entryY=0;entryDx=0;entryDy=0;" edge="1" parent="1" source="ijba6530hI7enNe_Atq1-29" target="ijba6530hI7enNe_Atq1-43">
          <mxGeometry relative="1" as="geometry">
            <mxPoint x="1366.5" y="520" as="sourcePoint" />
            <mxPoint x="1296" y="610" as="targetPoint" />
            <Array as="points">
              <mxPoint x="1270" y="517" />
            </Array>
          </mxGeometry>
        </mxCell>
        <mxCell id="ijba6530hI7enNe_Atq1-54" style="edgeStyle=none;curved=0;rounded=0;orthogonalLoop=1;jettySize=auto;html=1;entryX=0.65;entryY=-0.03;entryDx=0;entryDy=0;fontSize=12;startSize=8;endSize=8;exitX=1;exitY=0.5;exitDx=0;exitDy=0;entryPerimeter=0;" edge="1" parent="1" target="ijba6530hI7enNe_Atq1-46">
          <mxGeometry relative="1" as="geometry">
            <mxPoint x="1432.5" y="517" as="sourcePoint" />
            <mxPoint x="1540" y="600" as="targetPoint" />
            <Array as="points">
              <mxPoint x="1500" y="517" />
            </Array>
          </mxGeometry>
        </mxCell>
        <mxCell id="ijba6530hI7enNe_Atq1-55" style="edgeStyle=none;curved=0;rounded=0;orthogonalLoop=1;jettySize=auto;html=1;exitX=0;exitY=0.5;exitDx=0;exitDy=0;fontSize=12;startSize=8;endSize=8;entryX=0.343;entryY=-0.014;entryDx=0;entryDy=0;entryPerimeter=0;" edge="1" parent="1" target="ijba6530hI7enNe_Atq1-47">
          <mxGeometry relative="1" as="geometry">
            <mxPoint x="1720.5" y="517" as="sourcePoint" />
            <mxPoint x="1626.5" y="600" as="targetPoint" />
            <Array as="points">
              <mxPoint x="1650" y="520" />
            </Array>
          </mxGeometry>
        </mxCell>
        <mxCell id="ijba6530hI7enNe_Atq1-56" style="edgeStyle=none;curved=0;rounded=0;orthogonalLoop=1;jettySize=auto;html=1;entryX=0.362;entryY=-0.033;entryDx=0;entryDy=0;fontSize=12;startSize=8;endSize=8;exitX=1;exitY=0.5;exitDx=0;exitDy=0;entryPerimeter=0;" edge="1" parent="1" target="ijba6530hI7enNe_Atq1-48">
          <mxGeometry relative="1" as="geometry">
            <mxPoint x="1786.5" y="519" as="sourcePoint" />
            <mxPoint x="1856" y="600" as="targetPoint" />
            <Array as="points">
              <mxPoint x="1870" y="520" />
            </Array>
          </mxGeometry>
        </mxCell>
        <mxCell id="ijba6530hI7enNe_Atq1-80" style="edgeStyle=none;curved=0;rounded=0;orthogonalLoop=1;jettySize=auto;html=1;exitX=0.5;exitY=1;exitDx=0;exitDy=0;entryX=0.5;entryY=1;entryDx=0;entryDy=0;fontSize=12;startSize=8;endSize=8;" edge="1" parent="1" source="ijba6530hI7enNe_Atq1-58" target="ijba6530hI7enNe_Atq1-61">
          <mxGeometry relative="1" as="geometry">
            <Array as="points">
              <mxPoint x="1273" y="903" />
            </Array>
          </mxGeometry>
        </mxCell>
        <mxCell id="ijba6530hI7enNe_Atq1-58" value="Unos kraja rada" style="rounded=1;whiteSpace=wrap;html=1;" vertex="1" parent="1">
          <mxGeometry x="1179.5" y="730" width="187" height="60" as="geometry" />
        </mxCell>
        <mxCell id="ijba6530hI7enNe_Atq1-60" value="" style="rhombus;whiteSpace=wrap;html=1;direction=south;" vertex="1" parent="1">
          <mxGeometry x="930" y="860" width="56.5" height="66" as="geometry" />
        </mxCell>
        <mxCell id="ijba6530hI7enNe_Atq1-61" value="" style="rhombus;whiteSpace=wrap;html=1;direction=south;" vertex="1" parent="1">
          <mxGeometry x="1365.75" y="870" width="56.5" height="66" as="geometry" />
        </mxCell>
        <mxCell id="ijba6530hI7enNe_Atq1-62" value="" style="rhombus;whiteSpace=wrap;html=1;direction=south;" vertex="1" parent="1">
          <mxGeometry x="1770" y="860" width="56.5" height="66" as="geometry" />
        </mxCell>
        <mxCell id="ijba6530hI7enNe_Atq1-63" value="" style="ellipse;whiteSpace=wrap;html=1;aspect=fixed;strokeColor=#000000;fillColor=#000000;" vertex="1" parent="1">
          <mxGeometry x="1148" y="1235" width="40" height="40" as="geometry" />
        </mxCell>
        <mxCell id="ijba6530hI7enNe_Atq1-64" value="" style="endArrow=none;html=1;rounded=0;fontSize=12;startSize=2;endSize=20;curved=1;strokeWidth=5;" edge="1" parent="1">
          <mxGeometry width="50" height="50" relative="1" as="geometry">
            <mxPoint x="1083" y="1160" as="sourcePoint" />
            <mxPoint x="1253" y="1160" as="targetPoint" />
            <Array as="points">
              <mxPoint x="1170" y="1160" />
            </Array>
          </mxGeometry>
        </mxCell>
        <mxCell id="ijba6530hI7enNe_Atq1-65" value="" style="endArrow=classic;html=1;rounded=0;fontSize=12;startSize=8;endSize=8;curved=1;" edge="1" parent="1">
          <mxGeometry width="50" height="50" relative="1" as="geometry">
            <mxPoint x="1170" y="1160" as="sourcePoint" />
            <mxPoint x="1168" y="1230" as="targetPoint" />
          </mxGeometry>
        </mxCell>
        <mxCell id="ijba6530hI7enNe_Atq1-69" value="" style="endArrow=none;html=1;rounded=0;fontSize=12;startSize=8;endSize=8;curved=1;" edge="1" parent="1" target="ijba6530hI7enNe_Atq1-68">
          <mxGeometry width="50" height="50" relative="1" as="geometry">
            <mxPoint x="560" y="268.89" as="sourcePoint" />
            <mxPoint x="1760" y="268.89" as="targetPoint" />
          </mxGeometry>
        </mxCell>
        <mxCell id="ijba6530hI7enNe_Atq1-68" value="" style="rhombus;whiteSpace=wrap;html=1;" vertex="1" parent="1">
          <mxGeometry x="767" y="240" width="66" height="60" as="geometry" />
        </mxCell>
        <mxCell id="ijba6530hI7enNe_Atq1-72" value="" style="edgeStyle=none;curved=1;rounded=0;orthogonalLoop=1;jettySize=auto;html=1;exitX=0.5;exitY=1;exitDx=0;exitDy=0;fontSize=12;startSize=8;endSize=8;" edge="1" parent="1" source="ijba6530hI7enNe_Atq1-4" target="ijba6530hI7enNe_Atq1-67">
          <mxGeometry relative="1" as="geometry">
            <mxPoint x="1160" y="240" as="targetPoint" />
            <mxPoint x="1160" y="160" as="sourcePoint" />
          </mxGeometry>
        </mxCell>
        <mxCell id="ijba6530hI7enNe_Atq1-73" style="edgeStyle=none;curved=0;rounded=0;orthogonalLoop=1;jettySize=auto;html=1;exitX=0;exitY=0.5;exitDx=0;exitDy=0;entryX=0.5;entryY=0;entryDx=0;entryDy=0;fontSize=12;startSize=8;endSize=8;" edge="1" parent="1" source="ijba6530hI7enNe_Atq1-67" target="ijba6530hI7enNe_Atq1-68">
          <mxGeometry relative="1" as="geometry">
            <Array as="points">
              <mxPoint x="800" y="220" />
            </Array>
          </mxGeometry>
        </mxCell>
        <mxCell id="ijba6530hI7enNe_Atq1-67" value="" style="rhombus;whiteSpace=wrap;html=1;" vertex="1" parent="1">
          <mxGeometry x="1127" y="200" width="43" height="40" as="geometry" />
        </mxCell>
        <mxCell id="ijba6530hI7enNe_Atq1-78" style="edgeStyle=none;curved=0;rounded=0;orthogonalLoop=1;jettySize=auto;html=1;exitX=0.357;exitY=1;exitDx=0;exitDy=0;entryX=0.5;entryY=1;entryDx=0;entryDy=0;fontSize=12;startSize=8;endSize=8;exitPerimeter=0;" edge="1" parent="1" source="ijba6530hI7enNe_Atq1-77" target="ijba6530hI7enNe_Atq1-62">
          <mxGeometry relative="1" as="geometry">
            <Array as="points">
              <mxPoint x="1654" y="893" />
            </Array>
          </mxGeometry>
        </mxCell>
        <mxCell id="ijba6530hI7enNe_Atq1-77" value="Generiranje izvješća" style="rounded=1;whiteSpace=wrap;html=1;" vertex="1" parent="1">
          <mxGeometry x="1587" y="730" width="187" height="60" as="geometry" />
        </mxCell>
        <mxCell id="ijba6530hI7enNe_Atq1-82" value="Menadžer" style="text;html=1;align=center;verticalAlign=middle;whiteSpace=wrap;rounded=0;fontSize=16;" vertex="1" parent="1">
          <mxGeometry x="926.5" y="190" width="60" height="30" as="geometry" />
        </mxCell>
        <mxCell id="ijba6530hI7enNe_Atq1-84" value="Zaposlenik" style="text;html=1;align=center;verticalAlign=middle;whiteSpace=wrap;rounded=0;fontSize=16;" vertex="1" parent="1">
          <mxGeometry x="1200" y="380" width="60" height="30" as="geometry" />
        </mxCell>
        <mxCell id="ijba6530hI7enNe_Atq1-85" value="HR odjel" style="text;html=1;align=center;verticalAlign=middle;whiteSpace=wrap;rounded=0;fontSize=16;" vertex="1" parent="1">
          <mxGeometry x="1300.5" y="190" width="79.5" height="30" as="geometry" />
        </mxCell>
        <mxCell id="ijba6530hI7enNe_Atq1-88" value="" style="rhombus;whiteSpace=wrap;html=1;direction=south;" vertex="1" parent="1">
          <mxGeometry x="520" y="860" width="56.5" height="66" as="geometry" />
        </mxCell>
        <mxCell id="ijba6530hI7enNe_Atq1-91" value="" style="endArrow=none;html=1;rounded=0;fontSize=12;startSize=8;endSize=8;curved=1;" edge="1" parent="1">
          <mxGeometry width="50" height="50" relative="1" as="geometry">
            <mxPoint x="550" y="1050" as="sourcePoint" />
            <mxPoint x="1800" y="1050" as="targetPoint" />
          </mxGeometry>
        </mxCell>
        <mxCell id="ijba6530hI7enNe_Atq1-92" value="" style="endArrow=none;html=1;rounded=0;fontSize=12;startSize=8;endSize=8;curved=1;entryX=1;entryY=0.5;entryDx=0;entryDy=0;" edge="1" parent="1" target="ijba6530hI7enNe_Atq1-88">
          <mxGeometry width="50" height="50" relative="1" as="geometry">
            <mxPoint x="548" y="1050" as="sourcePoint" />
            <mxPoint x="690" y="1220" as="targetPoint" />
          </mxGeometry>
        </mxCell>
        <mxCell id="ijba6530hI7enNe_Atq1-93" value="" style="endArrow=none;html=1;rounded=0;fontSize=12;startSize=8;endSize=8;curved=1;entryX=1;entryY=0.5;entryDx=0;entryDy=0;" edge="1" parent="1" target="ijba6530hI7enNe_Atq1-60">
          <mxGeometry width="50" height="50" relative="1" as="geometry">
            <mxPoint x="958" y="1050" as="sourcePoint" />
            <mxPoint x="930" y="940" as="targetPoint" />
          </mxGeometry>
        </mxCell>
        <mxCell id="ijba6530hI7enNe_Atq1-94" value="" style="endArrow=none;html=1;rounded=0;fontSize=12;startSize=8;endSize=8;curved=1;entryX=1;entryY=0.5;entryDx=0;entryDy=0;" edge="1" parent="1">
          <mxGeometry width="50" height="50" relative="1" as="geometry">
            <mxPoint x="1393" y="1050" as="sourcePoint" />
            <mxPoint x="1393" y="936" as="targetPoint" />
          </mxGeometry>
        </mxCell>
        <mxCell id="ijba6530hI7enNe_Atq1-95" value="" style="endArrow=none;html=1;rounded=0;fontSize=12;startSize=8;endSize=8;curved=1;entryX=1;entryY=0.5;entryDx=0;entryDy=0;" edge="1" parent="1">
          <mxGeometry width="50" height="50" relative="1" as="geometry">
            <mxPoint x="1800" y="1050" as="sourcePoint" />
            <mxPoint x="1800" y="926" as="targetPoint" />
          </mxGeometry>
        </mxCell>
        <mxCell id="ijba6530hI7enNe_Atq1-96" value="" style="endArrow=none;html=1;rounded=0;fontSize=12;startSize=8;endSize=8;curved=1;" edge="1" parent="1">
          <mxGeometry width="50" height="50" relative="1" as="geometry">
            <mxPoint x="1170" y="1160" as="sourcePoint" />
            <mxPoint x="1170" y="1040" as="targetPoint" />
          </mxGeometry>
        </mxCell>
      </root>
    </mxGraphModel>
  </diagram>
</mxfile>
